<svg id="icons_behance" xmlns="http://www.w3.org/2000/svg" viewBox="0 0 50 50"><path d="M20.81,29.13c0,2.15-1.56,2.83-3.48,2.83h-5v-5.9h5.13C19.51,26.07,20.81,26.93,20.81,29.13ZM20,19.94c0-2-1.52-2.44-3.22-2.44H12.31v5h4.77c1.68,0,2.88-.74,2.88-2.56Zm14.77,2.59a3.33,3.33,0,0,0-1.33.19,3.26,3.26,0,0,0-1.15.71,3.16,3.16,0,0,0-.78,1.1,3.29,3.29,0,0,0-.28,1.32h7a3.31,3.31,0,0,0-.23-1.32,3.19,3.19,0,0,0-3.18-2ZM50,50H0V0H50ZM30.32,17.08H39V15H30.32ZM25.53,29.39a5.55,5.55,0,0,0-3.91-5.76,4.21,4.21,0,0,0,2.16-1.57,4.13,4.13,0,0,0,.76-2.56c0-4.27-3.18-5.3-6.85-5.3H7.59V35.63H18c3.9,0,7.55-1.89,7.55-6.24Zm16.88-1.66c0-4.58-2.69-8.41-7.54-8.41a7.78,7.78,0,0,0-3.13.59,7.61,7.61,0,0,0-2.63,1.78,7.72,7.72,0,0,0-1.7,2.7,7.63,7.63,0,0,0-.48,3.14,7.42,7.42,0,0,0,.43,3.17,7.55,7.55,0,0,0,7.51,5,6.91,6.91,0,0,0,7.26-5.22H38.37a3.54,3.54,0,0,1-3.37,2,3.57,3.57,0,0,1-1.55-.2,3.51,3.51,0,0,1-2.11-2.19,3.7,3.7,0,0,1-.15-1.55H42.38C42.39,28.28,42.41,28,42.41,27.73Z" style="fill:#fff;isolation:isolate"/></svg>