<svg xmlns="http://www.w3.org/2000/svg" viewBox="0 0 50 50"><g id="icons_linkedin"><path d="M.22.19C.34,16.65.22,50,.22,50H50V.19ZM19.16,36H14.47V21.42h4.69ZM17,19.21h0a2.34,2.34,0,0,1-1.78-.72,2.38,2.38,0,0,1-.54-.83,2.47,2.47,0,0,1-.15-1,2.52,2.52,0,0,1,.16-1,2.56,2.56,0,0,1,.55-.83,2.45,2.45,0,0,1,1.82-.7,2.55,2.55,0,0,1,1,.16,2.42,2.42,0,0,1,.82.55,2.29,2.29,0,0,1,.54.83,2.48,2.48,0,0,1,.17,1,2.58,2.58,0,0,1-.17,1,2.41,2.41,0,0,1-.55.83,2.53,2.53,0,0,1-.83.54A2.57,2.57,0,0,1,17,19.21ZM36.29,36H31.6V28c0-1.91-.68-3.21-2.38-3.21a2.54,2.54,0,0,0-2.4,1.73,3,3,0,0,0-.16,1.15V36H22V21.42h4.69v2a4.68,4.68,0,0,1,1.79-1.77,4.79,4.79,0,0,1,2.43-.6c3.08,0,5.41,2,5.41,6.4V36Z" style="fill:#fff;isolation:isolate"/></g></svg>